# xmcd CD database file
#
# Track frame offsets:
#	150
#	19102
#	34647
#	48922
#	70332
#	84935
#	109067
#	127870
#	147087
#	169685
#	192382
#	214700
#	237440
#	258252
#	278857
#
# Disc length: 4055 seconds
#
# Revision: 0
# Processed by: cddbd v1.5.1PL0 Copyright (c) Steve Scherf et al.
# Submitted via: CDex 1.51
#
DISCID=ca0fd50f
DTITLE=Dum Dum Project - Desi Vibes, Vol. 1
DYEAR=1900
DGENRE=New Age
TTITLE0=Indopop
TTITLE1=Lodi Garden
TTITLE2=Bajaj Breakdown
TTITLE3=Jackson Heist
TTITLE4=The Sadness at Leaving Delhi
TTITLE5=Diwani Diwana (Crazy Boy, Crazy Girl)
TTITLE6=The Sound
TTITLE7=Hello Hello
TTITLE8=In Flight
TTITLE9=I Love You.. You Love Me
TTITLE10=Jaia Canesha
TTITLE11=Jaani
TTITLE12=Mind Expansion
TTITLE13=Air India
TTITLE14=Ganesha Reprise
EXTD=
EXTT0=
EXTT1=
EXTT2=
EXTT3=
EXTT4=
EXTT5=
EXTT6=
EXTT7=
EXTT8=
EXTT9=
EXTT10=
EXTT11=
EXTT12=
EXTT13=
EXTT14=
PLAYORDER=
